<svg width="16" height="16" viewBox="0 0 16 16" fill="none" xmlns="http://www.w3.org/2000/svg">
<g id="mail">
<mask id="mask0_3_455" style="mask-type:alpha" maskUnits="userSpaceOnUse" x="0" y="0" width="16" height="16">
<rect id="Bounding box" width="16" height="16" fill="#D9D9D9"/>
</mask>
<g mask="url(#mask0_3_455)">
<path id="mail_2" d="M2.66695 13.3332C2.30028 13.3332 1.9864 13.2027 1.72528 12.9416C1.46417 12.6805 1.33362 12.3666 1.33362 11.9999V3.9999C1.33362 3.63323 1.46417 3.31934 1.72528 3.05823C1.9864 2.79712 2.30028 2.66656 2.66695 2.66656H13.3336C13.7003 2.66656 14.0142 2.79712 14.2753 3.05823C14.5364 3.31934 14.667 3.63323 14.667 3.9999V11.9999C14.667 12.3666 14.5364 12.6805 14.2753 12.9416C14.0142 13.2027 13.7003 13.3332 13.3336 13.3332H2.66695ZM8.00029 8.5499C8.05584 8.5499 8.11417 8.54156 8.17528 8.5249C8.2364 8.50823 8.29473 8.48323 8.35029 8.4499L13.067 5.4999C13.1558 5.44434 13.2225 5.3749 13.267 5.29156C13.3114 5.20823 13.3336 5.11656 13.3336 5.01656C13.3336 4.79434 13.2392 4.62768 13.0503 4.51656C12.8614 4.40545 12.667 4.41101 12.467 4.53323L8.00029 7.33323L3.53362 4.53323C3.33362 4.41101 3.13917 4.40823 2.95028 4.5249C2.7614 4.64156 2.66695 4.80545 2.66695 5.01656C2.66695 5.12768 2.68917 5.2249 2.73362 5.30823C2.77806 5.39156 2.84473 5.45545 2.93362 5.4999L7.65029 8.4499C7.70584 8.48323 7.76417 8.50823 7.82528 8.5249C7.8864 8.54156 7.94473 8.5499 8.00029 8.5499Z" fill="white"/>
</g>
</g>
</svg>
